<svg id="ico-footer-youtube" xmlns="http://www.w3.org/2000/svg" width="30" height="30" viewBox="0 0 30 30">
  <circle id="Ellipse_1" data-name="Ellipse 1" cx="15" cy="15" r="15" fill="#fff"/>
  <path id="youtube" d="M15.993-4.293a2.046,2.046,0,0,0-1.439-1.439,47.8,47.8,0,0,0-6.389-.35,49.659,49.659,0,0,0-6.389.336A2.087,2.087,0,0,0,.336-4.293,21.556,21.556,0,0,0,0-.365,21.477,21.477,0,0,0,.336,3.562,2.046,2.046,0,0,0,1.776,5a47.884,47.884,0,0,0,6.389.35,49.66,49.66,0,0,0,6.389-.336,2.046,2.046,0,0,0,1.439-1.439A21.563,21.563,0,0,0,16.33-.352,20.462,20.462,0,0,0,15.993-4.293ZM6.537,2.083v-4.9l4.25,2.448Zm0,0" transform="translate(7 15.082)" fill="#003652"/>
</svg>
