<svg xmlns="http://www.w3.org/2000/svg" width="85" height="85" viewBox="0 0 85 85">
  <g id="ico-twitter" transform="translate(-0.099 -0.099)">
    <path id="Icon_simple-twitter" data-name="Icon simple-twitter" d="M34.185,6.684A14.272,14.272,0,0,1,30.153,7.79,7.076,7.076,0,0,0,33.24,3.9a14.5,14.5,0,0,1-4.463,1.69,7.019,7.019,0,0,0-12.146,4.792,7.185,7.185,0,0,0,.181,1.6A19.886,19.886,0,0,1,2.34,4.675a6.881,6.881,0,0,0-.95,3.532,7.022,7.022,0,0,0,3.122,5.845,7,7,0,0,1-3.18-.879v.087a7.026,7.026,0,0,0,5.631,6.889,7.086,7.086,0,0,1-3.157.121,7.045,7.045,0,0,0,6.57,4.876,14.083,14.083,0,0,1-8.708,3,14.9,14.9,0,0,1-1.67-.1,19.973,19.973,0,0,0,10.785,3.152c12.921,0,19.978-10.7,19.978-19.959,0-.3,0-.6-.021-.9a14.179,14.179,0,0,0,3.511-3.636l-.067-.029Z" transform="translate(26.215 25.03)" fill="#0d9648"/>
    <g id="Ellipse_25" data-name="Ellipse 25" transform="translate(0.099 0.099)" fill="none" stroke="#0d9648" stroke-width="1">
      <circle cx="42.5" cy="42.5" r="42.5" stroke="none"/>
      <circle cx="42.5" cy="42.5" r="42" fill="none"/>
    </g>
  </g>
</svg>
